<?xml version="1.0"?>
<svg width="128" height="128" xmlns="http://www.w3.org/2000/svg" xmlns:svg="http://www.w3.org/2000/svg">
 <g class="layer">
  <title>Layer 1</title>
  <path d="m109.757,49.765l-5.14,-15.82l-10.187,-31.349c-0.523,-1.614 -2.805,-1.614 -3.33,0l-10.187,31.35l-33.826,0l-10.187,-31.35c-0.524,-1.614 -2.806,-1.614 -3.33,0l-10.187,31.35l-5.14,15.82a3.502,3.502 0 0 0 1.272,3.915l44.485,32.319l44.485,-32.32a3.502,3.502 0 0 0 1.272,-3.915" fill="#FC6D26" id="svg_1"/>
  <path d="m64,86l16.913,-52.054l-33.826,0l16.913,52.054z" fill="#E24329" id="svg_2"/>
  <path d="m64,86l-16.913,-52.054l-23.704,0l40.617,52.054z" fill="#FC6D26" id="svg_3"/>
  <path d="m23.383,33.946l-5.14,15.82a3.502,3.502 0 0 0 1.272,3.914l44.485,32.32l-40.617,-52.054z" fill="#FCA326" id="svg_4"/>
  <path d="m23.383,33.946l23.704,0l-10.187,-31.352c-0.524,-1.613 -2.806,-1.613 -3.33,0l-10.187,31.352z" fill="#E24329" id="svg_5"/>
  <path d="m64,86l16.913,-52.054l23.704,0l-40.617,52.054z" fill="#FC6D26" id="svg_6"/>
  <path d="m104.617,33.946l5.14,15.82a3.502,3.502 0 0 1 -1.272,3.914l-44.485,32.32l40.617,-52.054z" fill="#FCA326" id="svg_7"/>
  <path d="m104.617,33.946l-23.704,0l10.187,-31.352c0.524,-1.613 2.806,-1.613 3.33,0l10.187,31.352z" fill="#E24329" id="svg_8"/>
  <path d="m65.637,93.983l-4.49,0l0.015,33.405l18.16,0l0,-4.13l-13.672,0l-0.015,-29.275l0.002,0zm30.976,27.54a7.648,7.648 0 0 1 -5.56,2.346c-3.418,0 -4.795,-1.684 -4.795,-3.877c0,-3.315 2.295,-4.896 7.192,-4.896c0.918,0 2.397,0.102 3.162,0.255l0,6.17l0.001,0.002zm-4.642,-20.247c-3.624,0 -6.95,1.285 -9.543,3.423l1.587,2.747c1.836,-1.07 4.08,-2.142 7.294,-2.142c3.673,0 5.305,1.887 5.305,5.05l0,1.63c-0.714,-0.152 -2.193,-0.254 -3.11,-0.254c-7.857,0 -11.835,2.755 -11.835,8.518c0,5.15 3.162,7.752 7.957,7.752c3.23,0 6.325,-1.48 7.396,-3.876l0.817,3.264l3.163,0l0,-17.085c0,-5.406 -2.347,-9.027 -9.03,-9.027l-0.001,0zm23.513,22.746c-1.683,0 -3.163,-0.204 -4.285,-0.714l0,-15.452c1.53,-1.275 3.417,-2.193 5.814,-2.193c4.336,0 6.02,3.06 6.02,8.007c0,7.037 -2.704,10.352 -7.55,10.352m1.886,-22.746c-4.012,0 -6.17,2.73 -6.17,2.73l0,-4.31l-0.015,-5.713l-4.386,0l0.014,32.59c2.193,0.917 5.203,1.427 8.467,1.427c8.364,0 12.394,-5.355 12.394,-14.586c0,-7.293 -3.723,-12.138 -10.304,-12.138m-100.527,-3.672c3.98,0 6.53,1.326 8.212,2.652l1.93,-3.34c-2.63,-2.306 -6.167,-3.545 -9.94,-3.545c-9.538,0 -16.22,5.815 -16.22,17.545c0,12.289 7.21,17.084 15.456,17.084c4.132,0 7.652,-0.97 9.947,-1.938l-0.094,-13.132l0,-4.13l-12.243,0l0,4.13l7.805,0l0.094,9.97c-1.02,0.51 -2.806,0.918 -5.204,0.918c-6.63,0 -11.07,-4.17 -11.07,-12.954c0.002,-8.925 4.593,-13.26 11.326,-13.26m31.569,-3.621l-4.387,0l0.014,5.61l0,19.379c0,5.407 2.347,9.028 9.03,9.028c0.922,0 1.825,-0.084 2.702,-0.243l0,-3.94a13.47,13.47 0 0 1 -2.04,0.154c-3.674,0 -5.306,-1.886 -5.306,-5.048l0,-13.363l7.345,0l0,-3.672l-7.346,0l-0.014,-7.905l0.002,0zm-15.518,33.405l4.387,0l0,-25.5l-4.389,0l0,25.5l0.002,0zm0,-29.018l4.387,0l0,-4.387l-4.389,0l0,4.386l0.002,0.001z" fill="#ffffff" id="svg_9"/>
 </g>
</svg>