<?xml version="1.0"?>
<svg width="128" height="128" xmlns="http://www.w3.org/2000/svg" xmlns:svg="http://www.w3.org/2000/svg">
 <g class="layer">
  <title>Layer 1</title>
  <path d="m13,55.2l6.9,-4c0.2,-0.1 0.4,-0.1 0.6,0l6.9,4c0.2,0.1 0.3,0.3 0.3,0.5l0,8c0,0.2 -0.1,0.4 -0.3,0.5l-6.9,4c-0.2,0.1 -0.4,0.1 -0.6,0l-6.9,-4c-0.2,-0.1 -0.3,-0.3 -0.3,-0.5l0,-8c0,-0.2 0.1,-0.4 0.3,-0.5" fill="#8080F2" id="svg_1"/>
  <path d="m38.1,58.9l-8.2,-14.3c-0.3,-0.5 -0.9,-0.9 -1.4,-0.9l-16.6,0c-0.6,0 -1.2,0.4 -1.5,0.9l-8.2,14.2c-0.3,0.5 -0.3,1.2 0,1.7l8.2,14.2c0.3,0.5 0.9,0.8 1.5,0.8l16.5,0c0.6,0 1.2,-0.3 1.4,-0.8l8.2,-14.2c0.4,-0.5 0.4,-1.1 0.1,-1.6m-6.9,6.9c0,0.2 -0.1,0.4 -0.3,0.5l-10.5,6.1c-0.2,0.1 -0.4,0.1 -0.6,0l-10.4,-6.1c-0.2,-0.1 -0.4,-0.3 -0.4,-0.5l0,-12.1c0,-0.2 0.1,-0.4 0.3,-0.5l10.5,-6.1c0.2,-0.1 0.4,-0.1 0.6,0l10.5,6.1c0.2,0.1 0.3,0.3 0.3,0.5l0,12.1z" fill="#4B32C3" id="svg_2"/>
  <path d="m47.5,49l12.8,0l0,2.4l-10,0l0,7l8.4,0l0,2.4l-8.4,0l0,8.1l10.3,0l0,2.4l-13.1,0l0,-22.3zm14.5,19.4l1.6,-1.8c1.6,1.7 3.9,2.7 6.2,2.7c2.9,0 4.6,-1.5 4.6,-3.6c0,-2.3 -1.6,-3 -3.7,-3.9l-3.2,-1.4c-2.1,-0.9 -4.5,-2.5 -4.5,-5.7c0,-3.4 2.9,-5.9 7,-5.9c2.7,0 5,1.1 6.6,2.7l-1.5,1.8c-1.4,-1.2 -3.1,-2 -5.1,-2c-2.5,0 -4.1,1.3 -4.1,3.3c0,2.1 1.9,2.9 3.7,3.7l3.2,1.4c2.6,1.1 4.6,2.6 4.6,5.9c0,3.5 -2.8,6.3 -7.6,6.3c-3.2,-0.2 -5.9,-1.5 -7.8,-3.5zm17.9,-19.4l2.8,0l0,19.8l9.7,0l0,2.4l-12.5,0l0,-22.2zm14,0.6c0,-1.1 0.8,-1.8 1.9,-1.8s1.9,0.7 1.9,1.8s-0.8,1.8 -1.9,1.8s-1.9,-0.7 -1.9,-1.8zm0.5,5.2l2.8,0l0,16.5l-2.8,0l0,-16.5zm6.6,0l2.3,0l0.2,2.4l0.1,0c1.6,-1.6 3.3,-2.8 5.5,-2.8c3.5,0 5,2.2 5,6.4l0,10.4l-2.8,0l0,-10c0,-3.1 -1,-4.4 -3.1,-4.4c-1.7,0 -2.8,0.9 -4.5,2.5l0,11.9l-2.7,0l0,-16.4zm17.2,11.3l0,-9l-2.4,0l0,-2.1l2.6,-0.2l0.3,-5.3l2.3,0l0,5.3l4.4,0l0,2.3l-4.4,0l0,9.1c0,2 0.6,3.2 2.5,3.2c0.6,0 1.2,-0.1 1.9,-0.4l0.6,2c-0.9,0.4 -2,0.7 -3.1,0.7c-3.5,-0.1 -4.7,-2.3 -4.7,-5.6z" fill="#ffffff" id="svg_3"/>
 </g>
</svg>