<?xml version="1.0"?>
<svg width="128" height="128" xmlns="http://www.w3.org/2000/svg" xmlns:svg="http://www.w3.org/2000/svg">
 <g class="layer">
  <title>Layer 1</title>
  <path clip-rule="evenodd" d="m34.1,71.264c-1.093,0 -2.144,-0.146 -3.155,-0.44c-1.01,-0.294 -1.85,-0.7 -2.519,-1.219l1.024,-2.273c1.393,0.97 2.956,1.454 4.69,1.454c0.901,0 1.594,-0.147 2.079,-0.44c0.485,-0.294 0.727,-0.7 0.727,-1.219c0,-0.464 -0.222,-0.826 -0.666,-1.085c-0.443,-0.26 -1.232,-0.512 -2.365,-0.758c-1.27,-0.26 -2.284,-0.573 -3.041,-0.942c-0.758,-0.369 -1.311,-0.822 -1.66,-1.362c-0.348,-0.54 -0.521,-1.205 -0.521,-1.997c0,-0.873 0.242,-1.652 0.726,-2.334c0.485,-0.683 1.164,-1.219 2.038,-1.608c0.874,-0.39 1.884,-0.584 3.031,-0.584c1.024,0 2.01,0.15 2.96,0.45c0.949,0.301 1.703,0.704 2.263,1.21l-1.024,2.272c-1.325,-0.969 -2.717,-1.454 -4.178,-1.454c-0.833,0 -1.488,0.16 -1.966,0.482c-0.478,0.32 -0.717,0.76 -0.717,1.32c0,0.328 0.092,0.598 0.276,0.81c0.185,0.211 0.492,0.399 0.922,0.563c0.43,0.164 1.041,0.334 1.833,0.512c1.857,0.41 3.191,0.935 4.004,1.577c0.812,0.641 1.218,1.529 1.218,2.662c0,1.365 -0.525,2.44 -1.577,3.226c-1.05,0.785 -2.519,1.177 -4.403,1.177l0.001,0zm13.393,-2.293c0.314,0 0.642,-0.02 0.983,-0.062l-0.164,2.253a8.685,8.685 0 0 1 -1.188,0.082c-1.529,0 -2.645,-0.335 -3.348,-1.004c-0.703,-0.669 -1.055,-1.686 -1.055,-3.051l0,-3.85l-1.904,0l0,-2.315l1.904,0l0,-2.949l3.093,0l0,2.95l2.519,0l0,2.314l-2.52,0l0,3.83c0,1.2 0.56,1.802 1.68,1.802zm7.189,2.273c-1.065,0 -2,-0.215 -2.806,-0.645a4.525,4.525 0 0 1 -1.864,-1.823c-0.437,-0.785 -0.655,-1.71 -0.655,-2.775s0.218,-1.99 0.655,-2.775a4.46,4.46 0 0 1 1.864,-1.813c0.805,-0.423 1.74,-0.634 2.806,-0.634c1.065,0 2,0.211 2.805,0.634a4.46,4.46 0 0 1 1.864,1.813c0.437,0.785 0.655,1.71 0.655,2.775s-0.218,1.99 -0.655,2.775a4.524,4.524 0 0 1 -1.864,1.823c-0.805,0.43 -1.74,0.645 -2.805,0.645zm0,-2.355c1.502,0 2.252,-0.963 2.252,-2.888c0,-0.97 -0.194,-1.693 -0.583,-2.17c-0.39,-0.479 -0.946,-0.718 -1.67,-0.718c-1.501,0 -2.252,0.963 -2.252,2.888c0,1.925 0.75,2.888 2.253,2.888zm13.885,-5.57l-1.74,0.183c-0.86,0.082 -1.468,0.325 -1.823,0.727c-0.356,0.403 -0.533,0.94 -0.533,1.608l0,5.243l-3.093,0l0,-10.056l2.97,0l0,1.7c0.505,-1.16 1.55,-1.795 3.134,-1.904l0.9,-0.062l0.185,2.56l0,0.001zm8.986,-2.274l3.03,0l-6.061,13.721l-3.134,0l1.925,-4.239l-4.137,-9.482l3.216,0l2.54,6.39l2.62,-6.39l0.001,0zm10.199,-0.267c0.874,0 1.645,0.212 2.314,0.635c0.669,0.424 1.191,1.028 1.567,1.813c0.375,0.785 0.563,1.696 0.563,2.734s-0.188,1.956 -0.563,2.755c-0.376,0.798 -0.901,1.42 -1.577,1.863c-0.676,0.444 -1.444,0.666 -2.304,0.666c-0.697,0 -1.325,-0.147 -1.884,-0.44c-0.56,-0.294 -0.99,-0.7 -1.29,-1.22l0,1.496l-3.052,0l0,-14.438l3.092,0l0,5.734c0.3,-0.505 0.727,-0.898 1.28,-1.178a4.045,4.045 0 0 1 1.854,-0.42zm-0.901,8.11c0.723,0 1.283,-0.255 1.679,-0.767c0.396,-0.512 0.594,-1.233 0.594,-2.161c0,-0.915 -0.198,-1.614 -0.594,-2.1c-0.396,-0.484 -0.956,-0.726 -1.68,-0.726c-0.723,0 -1.283,0.249 -1.679,0.747c-0.396,0.499 -0.594,1.205 -0.594,2.12c0,0.928 0.198,1.642 0.594,2.14c0.396,0.498 0.956,0.748 1.68,0.748l0,-0.001zm12.062,2.356c-1.065,0 -2,-0.215 -2.805,-0.645a4.525,4.525 0 0 1 -1.864,-1.823c-0.437,-0.785 -0.656,-1.71 -0.656,-2.775s0.219,-1.99 0.656,-2.775a4.46,4.46 0 0 1 1.864,-1.813c0.805,-0.423 1.74,-0.634 2.805,-0.634c1.065,0 2,0.211 2.806,0.634a4.458,4.458 0 0 1 1.864,1.813c0.437,0.785 0.655,1.71 0.655,2.775s-0.218,1.99 -0.655,2.775a4.523,4.523 0 0 1 -1.864,1.823c-0.806,0.43 -1.74,0.645 -2.806,0.645zm0,-2.355c1.502,0 2.253,-0.963 2.253,-2.888c0,-0.97 -0.194,-1.693 -0.584,-2.17c-0.389,-0.479 -0.945,-0.718 -1.669,-0.718c-1.502,0 -2.252,0.963 -2.252,2.888c0,1.925 0.75,2.888 2.252,2.888zm11.531,2.355c-1.065,0 -2.001,-0.215 -2.806,-0.645a4.523,4.523 0 0 1 -1.864,-1.823c-0.437,-0.785 -0.655,-1.71 -0.655,-2.775s0.218,-1.99 0.655,-2.775a4.458,4.458 0 0 1 1.864,-1.813c0.805,-0.423 1.741,-0.634 2.806,-0.634c1.064,0 2,0.211 2.805,0.634a4.458,4.458 0 0 1 1.864,1.813c0.437,0.785 0.655,1.71 0.655,2.775s-0.218,1.99 -0.655,2.775a4.523,4.523 0 0 1 -1.864,1.823c-0.805,0.43 -1.741,0.645 -2.805,0.645zm0,-2.355c1.501,0 2.252,-0.963 2.252,-2.888c0,-0.97 -0.194,-1.693 -0.583,-2.17c-0.389,-0.479 -0.946,-0.718 -1.669,-0.718c-1.502,0 -2.253,0.963 -2.253,2.888c0,1.925 0.751,2.888 2.253,2.888zm17.556,2.191l-3.789,0l-3.85,-4.485l0,4.485l-3.093,0l0,-14.438l3.093,0l0,8.683l3.707,-4.28l3.686,0l-4.219,4.792l4.465,5.243z" fill="#ffffff" fill-rule="evenodd" id="svg_1"/>
  <path d="m19.183,51.002l-1.421,0.09l0.11,2.954a0.192,0.192 0 0 1 -0.31,0.157l-0.952,-0.75l-1.127,0.855a0.192,0.192 0 0 1 -0.308,-0.16l0.127,-2.903l-14.095,0.88a1.288,1.288 0 0 0 -1.206,1.335l0.793,21.133a1.287,1.287 0 0 0 1.229,1.238l17.182,0.772a1.289,1.289 0 0 0 1.345,-1.286l0,-23.03a1.287,1.287 0 0 0 -1.367,-1.285zm-8.52,4.354c3.35,0 5.181,1.793 5.181,5.203c-0.453,0.352 -3.826,0.592 -3.826,0.092c0.07,-1.911 -0.785,-1.995 -1.26,-1.995c-0.452,0 -1.212,0.136 -1.212,1.16c0,2.525 6.512,2.389 6.512,7.485c0,2.866 -2.33,4.45 -5.3,4.45c-3.066,0 -5.745,-1.24 -5.443,-5.541c0.12,-0.505 4.017,-0.385 4.017,0c-0.048,1.774 0.356,2.296 1.378,2.296c0.784,0 1.141,-0.432 1.141,-1.16c0,-2.594 -6.417,-2.684 -6.417,-7.44c0,-2.73 1.878,-4.55 5.229,-4.55z" fill="#FF4785" id="svg_2"/>
 </g>
</svg>