<?xml version="1.0"?>
<svg width="128" height="128" xmlns="http://www.w3.org/2000/svg" xmlns:svg="http://www.w3.org/2000/svg">
 <g class="layer">
  <title>Layer 1</title>
  <path d="m85.988,76.075c0.632,-5.262 0.443,-6.034 4.362,-5.182l0.995,0.088c3.014,0.137 6.957,-0.485 9.272,-1.561c4.986,-2.313 7.942,-6.177 3.026,-5.162c-11.215,2.313 -11.986,-1.483 -11.986,-1.483c11.843,-17.571 16.794,-39.875 12.521,-45.335c-11.654,-14.892 -31.828,-7.85 -32.166,-7.667l-0.108,0.021c-2.216,-0.461 -4.695,-0.735 -7.481,-0.78c-5.075,-0.083 -8.926,1.331 -11.847,3.546c0,0 -35.989,-14.827 -34.315,18.646c0.356,7.121 10.207,53.882 21.956,39.758c4.294,-5.164 8.444,-9.531 8.444,-9.531c2.061,1.369 4.528,2.067 7.116,1.816l0.2,-0.17c-0.062,0.641 -0.035,1.268 0.081,2.01c-3.027,3.383 -2.137,3.977 -8.189,5.222c-6.122,1.262 -2.525,3.508 -0.178,4.095c2.848,0.713 9.433,1.722 13.884,-4.509l-0.177,0.711c1.188,0.95 1.107,6.827 1.275,11.026c0.168,4.199 0.45,8.117 1.306,10.429c0.856,2.31 1.866,8.261 9.819,6.557c6.646,-1.426 11.727,-3.476 12.19,-22.545" id="svg_1"/>
  <path d="m71.208,102.77c-3.518,0 -5.808,-1.36 -7.2,-2.674c-2.1,-1.981 -2.933,-4.534 -3.43,-6.059l-0.215,-0.637c-1.002,-2.705 -1.341,-6.599 -1.542,-11.613a199.25,199.25 0 0 1 -0.075,-2.352c-0.017,-0.601 -0.038,-1.355 -0.068,-2.146a15.157,15.157 0 0 1 -3.997,1.264c-2.48,0.424 -5.146,0.286 -7.926,-0.409c-1.961,-0.49 -3.999,-1.506 -5.16,-3.076c-3.385,2.965 -6.614,2.562 -8.373,1.976c-3.103,-1.035 -5.88,-3.942 -8.491,-8.89c-1.859,-3.523 -3.658,-8.115 -5.347,-13.646c-2.94,-9.633 -4.808,-19.779 -4.974,-23.109c-0.522,-10.427 2.284,-17.883 8.34,-22.16c9.555,-6.749 24.03,-2.781 29.307,-0.979c3.545,-2.137 7.716,-3.178 12.43,-3.102c2.532,0.041 4.942,0.264 7.181,0.662c2.335,-0.734 6.949,-1.788 12.23,-1.723c9.73,0.116 17.793,3.908 23.316,10.966c3.941,5.036 1.993,15.61 0.48,21.466c-2.127,8.235 -5.856,16.996 -10.436,24.622c1.244,0.009 3.045,-0.141 5.607,-0.669c5.054,-1.044 6.531,1.666 6.932,2.879c1.607,4.867 -5.378,8.544 -7.557,9.555c-2.792,1.297 -7.343,2.086 -11.071,1.915l-0.163,-0.011l-0.979,-0.086l-0.097,0.816l-0.093,0.799c-0.25,9.664 -1.631,15.784 -4.472,19.829c-2.977,4.239 -7.116,5.428 -10.761,6.209a16.146,16.146 0 0 1 -3.396,0.383zm-7.402,-35.174c2.271,1.817 2.47,5.236 2.647,11.626c0.022,0.797 0.043,1.552 0.071,2.257c0.086,2.134 0.287,7.132 1.069,9.244c0.111,0.298 0.21,0.602 0.314,0.922c0.872,2.672 1.31,4.011 5.081,3.203c3.167,-0.678 4.794,-1.287 6.068,-3.101c1.852,-2.638 2.888,-7.941 3.078,-15.767l3.852,0.094l-3.826,-0.459l0.112,-0.955c0.367,-3.148 0.631,-5.424 2.736,-6.928c1.688,-1.207 3.613,-1.09 5.146,-0.814c-1.684,-1.271 -2.15,-2.765 -2.274,-3.377l-0.321,-1.582l0.902,-1.34c5.2,-7.716 9.489,-17.199 11.767,-26.018c2.34,-9.062 1.626,-13.875 0.913,-14.785c-9.446,-12.071 -25.829,-7.088 -27.539,-6.521l-0.29,0.156l-1.45,0.271l-0.743,-0.154c-2.047,-0.425 -4.321,-0.66 -6.76,-0.7c-3.831,-0.064 -6.921,0.841 -9.455,2.764l-1.758,1.333l-2.041,-0.841c-4.358,-1.782 -17.162,-5.365 -23.918,-0.58c-3.75,2.656 -5.458,7.861 -5.078,15.47c0.125,2.512 1.833,12.021 4.647,21.245c3.891,12.746 7.427,16.979 8.903,17.472c0.257,0.087 0.926,-0.433 1.591,-1.231c4.326,-5.203 8.44,-9.54 8.613,-9.723l2.231,-2.347l2.697,1.792c1.087,0.723 2.286,1.132 3.518,1.209l6.433,-5.486l-0.932,9.51c-0.021,0.214 -0.031,0.504 0.053,1.044l0.28,1.803l-1.213,1.358l-0.14,0.157l3.534,1.632l1.482,-1.853z" id="svg_2"/>
  <path d="m103.646,64.258c-11.216,2.313 -11.987,-1.484 -11.987,-1.484c11.842,-17.571 16.792,-39.876 12.52,-45.335c-11.655,-14.892 -31.829,-7.849 -32.166,-7.666l-0.109,0.019c-2.216,-0.459 -4.695,-0.733 -7.482,-0.778c-5.075,-0.083 -8.925,1.33 -11.846,3.545c0,0 -35.99,-14.826 -34.316,18.647c0.356,7.121 10.207,53.882 21.956,39.758c4.294,-5.164 8.443,-9.531 8.443,-9.531c2.061,1.369 4.528,2.067 7.115,1.816l0.201,-0.17c-0.062,0.641 -0.034,1.268 0.08,2.01c-3.026,3.383 -2.138,3.977 -8.188,5.222c-6.123,1.262 -2.526,3.508 -0.177,4.095c2.847,0.713 9.433,1.722 13.883,-4.509l-0.178,0.711c1.186,0.95 2.019,6.179 1.879,10.919s-0.233,7.994 0.702,10.536c0.935,2.541 1.866,8.261 9.82,6.557c6.646,-1.425 10.09,-5.116 10.57,-11.272c0.34,-4.377 1.109,-3.73 1.158,-7.644l0.618,-1.853c0.711,-5.934 0.113,-7.848 4.208,-6.957l0.995,0.087c3.014,0.138 6.958,-0.485 9.273,-1.561c4.986,-2.314 7.943,-6.177 3.028,-5.162z" fill="#336791" id="svg_3"/>
  <path d="m71.61,100.394c-6.631,0.001 -8.731,-5.25 -9.591,-7.397c-1.257,-3.146 -1.529,-15.358 -1.249,-25.373a1.286,1.286 0 0 1 2.57,0.072c-0.323,11.551 0.136,22.018 1.066,24.346c1.453,3.632 3.656,6.809 9.887,5.475c5.915,-1.269 8.13,-3.512 9.116,-9.23c0.758,-4.389 2.254,-16.874 2.438,-19.338a1.285,1.285 0 0 1 2.563,0.191c-0.192,2.564 -1.682,15.026 -2.469,19.584c-1.165,6.755 -4.176,9.819 -11.11,11.306a15.462,15.462 0 0 1 -3.221,0.364zm-35.951,-25.645a5.343,5.343 0 0 1 -1.704,-0.281c-4.307,-1.437 -8.409,-8.451 -12.193,-20.849c-2.88,-9.438 -4.705,-19.288 -4.865,-22.489c-0.475,-9.49 1.97,-16.205 7.265,-19.957c10.476,-7.423 28.1,-0.354 28.845,-0.05a1.285,1.285 0 0 1 -0.972,2.379l0,0.001c-0.17,-0.07 -17.07,-6.84 -26.392,-0.229c-4.528,3.211 -6.607,9.175 -6.18,17.729c0.135,2.696 1.84,12.311 4.757,21.867c3.378,11.067 7.223,18.052 10.548,19.16c0.521,0.175 2.109,0.704 4.381,-2.026c4.272,-5.14 8.197,-9.242 8.236,-9.283a1.286,1.286 0 0 1 1.856,1.778c-0.039,0.04 -3.904,4.081 -8.116,9.148c-1.995,2.398 -3.908,3.102 -5.466,3.102zm55.92,-10.829a1.284,1.284 0 0 1 -1.065,-2.004c11.971,-17.764 16.173,-39.227 12.574,-43.825c-4.53,-5.788 -10.927,-8.812 -19.012,-8.985c-5.987,-0.13 -10.746,1.399 -11.523,1.666l-0.195,0.079c-0.782,0.246 -1.382,-0.183 -1.608,-0.684a1.29,1.29 0 0 1 0.508,-1.631l0.346,-0.142l-0.017,0.005l0.018,-0.006c1.321,-0.483 6.152,-1.933 12.137,-1.864c8.947,0.094 16.337,3.545 21.371,9.977c2.382,3.044 2.387,10.057 0.015,19.24c-2.418,9.362 -6.968,19.425 -12.482,27.607a1.282,1.282 0 0 1 -1.067,0.567zm0.611,8.223c-2.044,0 -3.876,-0.287 -4.973,-0.945c-1.128,-0.675 -1.343,-1.594 -1.371,-2.081c-0.308,-5.404 2.674,-6.345 4.195,-6.774c-0.212,-0.32 -0.514,-0.697 -0.825,-1.086c-0.887,-1.108 -2.101,-2.626 -3.037,-4.896c-0.146,-0.354 -0.606,-1.179 -1.138,-2.133c-2.883,-5.169 -8.881,-15.926 -5.028,-21.435c1.784,-2.549 5.334,-3.552 10.566,-2.992c-1.539,-4.689 -8.869,-19.358 -26.259,-19.643c-5.231,-0.088 -9.521,1.521 -12.744,4.775c-7.217,7.289 -6.955,20.477 -6.952,20.608a1.284,1.284 0 1 1 -2.569,0.067c-0.016,-0.585 -0.286,-14.424 7.695,-22.484c3.735,-3.772 8.651,-5.634 14.612,-5.537c11.128,0.183 18.289,5.839 22.338,10.553c4.412,5.136 6.576,10.802 6.754,12.692c0.133,1.406 -0.876,1.688 -1.08,1.729l-0.463,0.011c-5.135,-0.822 -8.429,-0.252 -9.791,1.695c-2.931,4.188 2.743,14.363 5.166,18.709c0.619,1.108 1.065,1.909 1.269,2.404c0.796,1.93 1.834,3.227 2.668,4.269c0.733,0.917 1.369,1.711 1.597,2.645c0.105,0.185 1.603,2.399 10.488,0.565c2.227,-0.459 3.562,-0.066 3.97,1.168c0.803,2.429 -3.702,5.261 -6.196,6.42c-2.238,1.039 -5.805,1.696 -8.892,1.696zm-3.781,-3.238c0.281,0.285 1.691,0.775 4.612,0.65c2.596,-0.112 5.335,-0.677 6.979,-1.439c2.102,-0.976 3.504,-2.067 4.231,-2.812l-0.404,0.074c-5.681,1.173 -9.699,1.017 -11.942,-0.465a4.821,4.821 0 0 1 -0.435,-0.323c-0.243,0.096 -0.468,0.159 -0.628,0.204c-1.273,0.357 -2.589,0.726 -2.413,4.111zm-36.697,7.179c-1.411,0 -2.896,-0.191 -4.413,-0.572c-1.571,-0.393 -4.221,-1.576 -4.18,-3.519c0.045,-2.181 3.216,-2.835 4.411,-3.081c4.312,-0.888 4.593,-1.244 5.941,-2.955c0.393,-0.499 0.882,-1.12 1.548,-1.865c0.99,-1.107 2.072,-1.669 3.216,-1.669c0.796,0 1.45,0.271 1.881,0.449c1.376,0.57 2.524,1.948 2.996,3.598c0.426,1.488 0.223,2.92 -0.572,4.032c-2.608,3.653 -6.352,5.582 -10.828,5.582zm-5.817,-3.98c0.388,0.299 1.164,0.699 2.027,0.916c1.314,0.328 2.588,0.495 3.79,0.495c3.662,0 6.601,-1.517 8.737,-4.506c0.445,-0.624 0.312,-1.415 0.193,-1.832c-0.25,-0.872 -0.87,-1.665 -1.509,-1.931c-0.347,-0.144 -0.634,-0.254 -0.898,-0.254c-0.142,0 -0.573,0 -1.3,0.813c-0.614,0.686 -1.055,1.246 -1.446,1.741c-1.678,2.131 -2.447,2.854 -7.441,3.883c-1.218,0.252 -1.843,0.506 -2.153,0.675zm9.882,-5.928a1.286,1.286 0 0 1 -1.269,-1.09a6.026,6.026 0 0 1 -0.064,-0.644c-3.274,-0.062 -6.432,-1.466 -8.829,-3.968c-3.031,-3.163 -4.411,-7.545 -3.785,-12.022c0.68,-4.862 0.426,-9.154 0.289,-11.46a25.514,25.514 0 0 1 -0.063,-1.425c0.002,-0.406 0.01,-1.485 3.615,-3.312c1.282,-0.65 3.853,-1.784 6.661,-2.075c4.654,-0.48 7.721,1.592 8.639,5.836c2.478,11.46 0.196,16.529 -1.47,20.23c-0.311,0.688 -0.604,1.34 -0.838,1.97l-0.207,0.557c-0.88,2.36 -1.641,4.399 -1.407,5.923a1.287,1.287 0 0 1 -1.075,1.466l-0.197,0.014zm-11.143,-30.254l0.051,0.918c0.142,2.395 0.406,6.853 -0.31,11.969c-0.516,3.692 0.612,7.297 3.095,9.888c1.962,2.048 4.546,3.178 7.201,3.178l0.055,0c0.298,-1.253 0.791,-2.575 1.322,-4l0.206,-0.553c0.265,-0.712 0.575,-1.401 0.903,-2.13c1.604,-3.564 3.6,-8 1.301,-18.633c-0.456,-2.105 -1.56,-3.324 -3.375,-3.726c-3.728,-0.824 -9.283,1.98 -10.449,3.089zm7.756,-0.545c-0.064,0.454 0.833,1.667 2.001,1.829c1.167,0.163 2.166,-0.785 2.229,-1.239c0.063,-0.455 -0.833,-0.955 -2.002,-1.118c-1.167,-0.163 -2.166,0.073 -2.228,0.528zm2.27,2.277l-0.328,-0.023c-0.725,-0.101 -1.458,-0.558 -1.959,-1.223c-0.176,-0.233 -0.464,-0.687 -0.407,-1.091c0.082,-0.593 0.804,-0.947 1.933,-0.947c0.253,0 0.515,0.019 0.78,0.055c0.616,0.086 1.189,0.264 1.612,0.5c0.733,0.41 0.787,0.866 0.754,1.103c-0.091,0.653 -1.133,1.626 -2.385,1.626zm-1.844,-2.201c0.037,0.28 0.73,1.205 1.634,1.33l0.209,0.015c0.834,0 1.458,-0.657 1.531,-0.872c-0.077,-0.146 -0.613,-0.511 -1.631,-0.651a4.72,4.72 0 0 0 -0.661,-0.048c-0.652,-0.001 -1.001,0.146 -1.082,0.226zm35.121,-1.003c0.063,0.455 -0.832,1.668 -2.001,1.83c-1.168,0.162 -2.167,-0.785 -2.231,-1.24c-0.062,-0.454 0.834,-0.955 2.002,-1.117c1.168,-0.164 2.166,0.074 2.23,0.527zm-2.27,2.062c-1.125,0 -2.094,-0.875 -2.174,-1.442c-0.092,-0.681 1.029,-1.199 2.185,-1.359c0.254,-0.036 0.506,-0.054 0.749,-0.054c0.997,0 1.657,0.293 1.723,0.764c0.043,0.306 -0.191,0.777 -0.595,1.201c-0.266,0.28 -0.826,0.765 -1.588,0.87l-0.3,0.02zm0.759,-2.427c-0.223,0 -0.455,0.017 -0.69,0.049c-1.162,0.161 -1.853,0.628 -1.82,0.878c0.039,0.274 0.78,1.072 1.75,1.072l0.239,-0.017c0.634,-0.089 1.11,-0.502 1.337,-0.741c0.356,-0.375 0.498,-0.727 0.481,-0.848c-0.021,-0.157 -0.449,-0.393 -1.297,-0.393zm3.194,26.453a1.285,1.285 0 0 1 -1.067,-2c2.736,-4.087 2.235,-8.256 1.751,-12.286c-0.207,-1.718 -0.42,-3.493 -0.364,-5.198c0.056,-1.753 0.278,-3.199 0.494,-4.599c0.255,-1.657 0.496,-3.224 0.396,-5.082a1.286,1.286 0 0 1 2.567,-0.138c0.114,2.124 -0.159,3.896 -0.423,5.611c-0.204,1.323 -0.415,2.691 -0.466,4.29c-0.049,1.509 0.144,3.112 0.348,4.808c0.516,4.287 1.099,9.146 -2.167,14.023c-0.248,0.37 -0.655,0.571 -1.069,0.571z" fill="#fff" id="svg_4"/>
  <path d="m2.835,103.184a26.23,26.23 0 0 1 4.343,-0.338c2.235,0 3.874,0.52 4.914,1.456c0.962,0.832 1.534,2.106 1.534,3.667c0,1.586 -0.469,2.834 -1.353,3.744c-1.196,1.274 -3.146,1.924 -5.356,1.924c-0.676,0 -1.3,-0.026 -1.819,-0.156l0,7.021l-2.263,0l0,-17.318zm2.263,8.45c0.494,0.13 1.118,0.182 1.872,0.182c2.729,0 4.394,-1.326 4.394,-3.744c0,-2.314 -1.638,-3.432 -4.134,-3.432c-0.988,0 -1.742,0.078 -2.132,0.182l0,6.812zm22.23,2.47c0,4.654 -3.225,6.683 -6.267,6.683c-3.406,0 -6.032,-2.496 -6.032,-6.475c0,-4.212 2.756,-6.682 6.24,-6.682c3.615,-0.001 6.059,2.626 6.059,6.474zm-9.984,0.13c0,2.756 1.586,4.836 3.822,4.836c2.184,0 3.821,-2.054 3.821,-4.888c0,-2.132 -1.065,-4.836 -3.77,-4.836s-3.873,2.496 -3.873,4.888zm12.557,3.926c0.676,0.442 1.872,0.91 3.016,0.91c1.664,0 2.444,-0.832 2.444,-1.872c0,-1.092 -0.649,-1.69 -2.34,-2.314c-2.262,-0.806 -3.328,-2.054 -3.328,-3.562c0,-2.028 1.638,-3.692 4.342,-3.692c1.274,0 2.393,0.364 3.095,0.78l-0.572,1.664a4.897,4.897 0 0 0 -2.574,-0.728c-1.352,0 -2.106,0.78 -2.106,1.716c0,1.04 0.755,1.508 2.393,2.132c2.184,0.832 3.302,1.924 3.302,3.796c0,2.21 -1.716,3.77 -4.706,3.77c-1.378,0 -2.652,-0.338 -3.536,-0.858l0.57,-1.742zm13.365,-13.859l0,3.614l3.275,0l0,1.742l-3.275,0l0,6.786c0,1.56 0.441,2.444 1.716,2.444a5.09,5.09 0 0 0 1.326,-0.156l0.104,1.716c-0.441,0.182 -1.144,0.312 -2.027,0.312c-1.066,0 -1.925,-0.338 -2.471,-0.962c-0.649,-0.676 -0.884,-1.794 -0.884,-3.276l0,-6.864l-1.95,0l0,-1.742l1.95,0l0,-3.016l2.236,-0.598zm16.536,3.615c-0.053,0.91 -0.104,1.924 -0.104,3.458l0,7.306c0,2.886 -0.572,4.654 -1.794,5.747c-1.222,1.144 -2.99,1.508 -4.576,1.508c-1.508,0 -3.172,-0.364 -4.187,-1.04l0.572,-1.742c0.832,0.52 2.132,0.988 3.692,0.988c2.34,0 4.056,-1.222 4.056,-4.394l0,-1.404l-0.052,0c-0.702,1.17 -2.054,2.106 -4.004,2.106c-3.12,0 -5.356,-2.652 -5.356,-6.137c0,-4.264 2.782,-6.682 5.668,-6.682c2.185,0 3.381,1.144 3.927,2.184l0.052,0l0.104,-1.898l2.002,0zm-2.366,4.966c0,-0.39 -0.026,-0.728 -0.13,-1.04c-0.416,-1.326 -1.534,-2.418 -3.198,-2.418c-2.185,0 -3.744,1.846 -3.744,4.758c0,2.47 1.248,4.524 3.718,4.524c1.404,0 2.678,-0.884 3.172,-2.34c0.13,-0.39 0.183,-0.832 0.183,-1.222l0,-2.262l-0.001,0zm5.901,-1.04c0,-1.482 -0.026,-2.756 -0.104,-3.926l2.003,0l0.077,2.47l0.104,0c0.572,-1.69 1.95,-2.756 3.484,-2.756c0.26,0 0.441,0.026 0.649,0.078l0,2.158a3.428,3.428 0 0 0 -0.779,-0.078c-1.612,0 -2.757,1.222 -3.068,2.938a6.44,6.44 0 0 0 -0.104,1.066l0,6.708l-2.262,0l0,-8.658zm9.517,2.782c0.052,3.094 2.027,4.368 4.315,4.368c1.639,0 2.626,-0.286 3.484,-0.65l0.39,1.638c-0.806,0.364 -2.184,0.78 -4.186,0.78c-3.874,0 -6.188,-2.548 -6.188,-6.344c0,-3.796 2.236,-6.787 5.902,-6.787c4.108,0 5.2,3.614 5.2,5.928c0,0.468 -0.052,0.832 -0.078,1.066l-8.839,0l0,0.001zm6.708,-1.638c0.025,-1.456 -0.599,-3.718 -3.172,-3.718c-2.314,0 -3.328,2.132 -3.511,3.718l6.683,0z" fill="#ffffff" id="svg_5"/>
  <path d="m84.371,117.744a8.016,8.016 0 0 0 4.056,1.144c2.314,0 3.666,-1.222 3.666,-2.99c0,-1.638 -0.936,-2.574 -3.302,-3.484c-2.86,-1.014 -4.628,-2.496 -4.628,-4.966c0,-2.73 2.262,-4.758 5.668,-4.758c1.794,0 3.094,0.416 3.874,0.858l-0.624,1.846a6.98,6.98 0 0 0 -3.328,-0.832c-2.392,0 -3.302,1.43 -3.302,2.626c0,1.638 1.065,2.444 3.484,3.38c2.964,1.145 4.472,2.574 4.472,5.148c0,2.704 -2.002,5.044 -6.136,5.044c-1.69,0 -3.536,-0.494 -4.473,-1.118l0.573,-1.898zm27.586,5.33a94.846,94.846 0 0 1 -6.708,-2.028c-0.364,-0.13 -0.728,-0.26 -1.066,-0.26c-4.16,-0.156 -7.722,-3.224 -7.722,-8.866c0,-5.616 3.432,-9.23 8.164,-9.23c4.758,0 7.853,3.692 7.853,8.866c0,4.498 -2.08,7.384 -4.992,8.398l0,0.104c1.742,0.442 3.64,0.858 5.122,1.118l-0.651,1.898zm-1.872,-11.414c0,-3.51 -1.819,-7.125 -5.538,-7.125c-3.822,0 -5.694,3.536 -5.668,7.333c-0.026,3.718 2.028,7.072 5.564,7.072c3.615,0 5.642,-3.276 5.642,-7.28zm5.329,-8.684l2.263,0l0,15.626l7.488,0l0,1.898l-9.751,0l0,-17.524z" fill="#336791" id="svg_6"/>
 </g>
</svg>