<?xml version="1.0"?>
<svg width="348" height="141" xmlns="http://www.w3.org/2000/svg" xmlns:svg="http://www.w3.org/2000/svg">
 <defs>
  <linearGradient id="paint0_linear_5876_56500" x1="0.21967" x2="0.817757" y1="-0.106906" y2="1.238366">
   <stop offset="0.0939" stop-color="#58D09E"/>
   <stop offset="0.9883" stop-color="#58D09E" stop-opacity="0"/>
  </linearGradient>
  <linearGradient id="paint1_linear_5876_56500" x1="-0.028645" x2="1.158177" y1="0.327246" y2="0.803809">
   <stop offset="0.0774" stop-color="#58D09E"/>
   <stop offset="0.7617" stop-color="#1B1E2E"/>
  </linearGradient>
 </defs>
 <g class="layer">
  <title>Layer 1</title>
  <path d="m3.22703,88.9018c-1.64836,-6.0111 -2.487577,-12.2544 -2.487577,-18.5428c0,-28.706 18.004647,-54.9537 44.805547,-65.30431l3.5139,9.10651c-23.0695,8.9116 -38.5641,31.4942 -38.5641,56.1978c0,5.419 0.7192,10.7854 2.1353,15.957l-9.40307,2.5858z" fill="#69D3A7" id="svg_1" opacity="0.4"/>
  <path d="m124.339,42.6275c-10.43,-20.0492 -30.9591,-32.506 -53.5641,-32.506c-8.0096,0 -14.4068,0.9815 -21.7346,4.017l-3.5137,-9.09156c8.519,-3.53017 15.9425,-4.691471 25.2483,-4.691471c26.2614,0 50.1031,14.465431 62.2181,37.760031l-8.654,4.512z" fill="url(#paint0_linear_5876_56500)" id="svg_2" opacity="0.35"/>
  <path d="m49.8486,55.9172c5.6569,0 10.2648,3.0205 12.6324,8.2895l0.1873,0.4122l9.5006,-3.2303l-0.2024,-0.4872c-3.6788,-8.9716 -12.1528,-14.5479 -22.1179,-14.5479c-7.0055,0 -12.7,2.2485 -17.4053,6.8655c-4.6753,4.5869 -7.0429,10.3581 -7.0429,17.1561c0,6.7381 2.3676,12.4793 7.0429,17.0663c4.7053,4.6169 10.3998,6.8654 17.4053,6.8654c9.9651,0 18.4391,-5.5763 22.1179,-14.5404l0.2024,-0.4872l-9.5156,-3.2378l-0.1798,0.4272c-2.1204,5.1791 -6.8406,8.2745 -12.6249,8.2745c-3.9411,0 -7.2678,-1.379 -9.9052,-4.0922c-2.6674,-2.7507 -4.016,-6.206 -4.016,-10.2683c0,-4.0923 1.3187,-7.48 4.016,-10.3581c2.6299,-2.7282 5.9641,-4.1073 9.9052,-4.1073z" fill="#bfbfbf" id="svg_3"/>
  <path d="m166.92,53.2265c-4.383,-4.557 -9.853,-6.873 -16.267,-6.873c-6.368,0 -11.613,2.271 -15.599,6.7456l0,-5.8612l-10.265,0l0,63.8651l10.265,0l0,-23.5417c3.986,4.4745 9.223,6.7455 15.599,6.7455c6.414,0 11.891,-2.316 16.274,-6.8804c4.316,-4.587 6.496,-10.3207 6.496,-17.0513c-0.007,-6.798 -2.188,-12.5617 -6.503,-17.1486zm-8.047,27.4093c-2.63,2.7208 -5.964,4.0923 -9.898,4.0923c-3.993,0 -7.23,-1.3416 -9.905,-4.0923c-2.667,-2.7506 -4.016,-6.2058 -4.016,-10.2681c0,-4.1823 1.311,-7.5701 4.016,-10.3582c2.667,-2.7582 5.904,-4.0923 9.905,-4.0923c3.941,0 7.268,1.3791 9.898,4.0923c2.645,2.7282 3.926,6.116 3.926,10.3582c0,4.1822 -1.289,7.54 -3.926,10.2681z" fill="#bfbfbf" id="svg_4"/>
  <path d="m190.131,52.7393l0,-5.5013l-10.265,0l0,46.1769l10.265,0l0,-26.0527c0,-4.1748 1.678,-7.3677 4.99,-9.4888c3.289,-2.1061 7.238,-2.4958 12.071,-1.1767l0.621,0.1724l0,-9.8785l-0.382,-0.0899c-6.488,-1.5515 -12.999,0.682 -17.3,5.8386z" fill="#bfbfbf" id="svg_5"/>
  <path d="m234.442,46.3535c-6.765,0 -12.505,2.3085 -17.06,6.8655c-4.616,4.6169 -6.953,10.3881 -6.953,17.1561c0,6.7381 2.367,12.4793 7.043,17.0663c4.705,4.6169 10.399,6.8654 17.405,6.8654c9.493,0 17.652,-4.8268 21.833,-12.9139l0.24,-0.4647l-8.684,-3.8525l-0.21,0.4122c-2.517,4.8718 -7.35,7.7799 -12.909,7.7799c-7.223,0 -12.753,-4.4146 -14.251,-11.3025l37.238,0l0.045,-0.4422c0.809,-7.4501 -1.109,-13.9109 -5.687,-19.2098c-4.556,-5.2841 -10.632,-7.9598 -18.05,-7.9598zm-13.239,19.3672c1.821,-6.3033 6.961,-10.3357 13.239,-10.3357c6.451,0 11.591,4.0324 13.255,10.3357l-26.494,0z" fill="#bfbfbf" id="svg_6"/>
  <path d="m285.601,65.9677c-5.596,-1.0493 -10.429,-1.9637 -10.429,-5.8611c0,-3.0954 3.289,-5.254 7.994,-5.254c5.193,0 8.04,2.2335 8.707,6.828l0.075,0.5171l10.264,-2.1511l-0.074,-0.4646c-1.379,-8.1621 -8.647,-13.2363 -18.964,-13.2363c-5.177,0 -9.561,1.3416 -13.022,3.9874c-3.537,2.6307 -5.327,6.0635 -5.327,10.2157c0,6.011 3.806,10.5231 10.197,12.0671c1.656,0.3897 3.409,0.7045 5.102,1.0193c6.362,1.1617 12.371,2.2635 12.371,6.5506c0,3.3053 -3.837,5.6063 -9.321,5.6063c-5.582,0 -8.661,-2.2335 -9.418,-6.8355l-0.083,-0.5096l-10.257,2.1511l0.082,0.4722c1.491,8.282 8.842,13.2287 19.668,13.2287c5.5,0 10.213,-1.3716 13.989,-4.0698c3.776,-2.6682 5.687,-6.1085 5.687,-10.2232c0,-10.7929 -9.553,-12.5917 -17.241,-14.0383z" fill="#bfbfbf" id="svg_7"/>
  <path d="m330.07,65.9677c-5.597,-1.0493 -10.429,-1.9637 -10.429,-5.8611c0,-3.0954 3.289,-5.254 7.994,-5.254c5.193,0 8.04,2.2335 8.707,6.828l0.074,0.5171l10.265,-2.1511l-0.075,-0.4646c-1.378,-8.1621 -8.646,-13.2363 -18.963,-13.2363c-5.178,0 -9.561,1.3416 -13.022,3.9874c-3.537,2.6307 -5.328,6.0635 -5.328,10.2157c0,6.011 3.807,10.5231 10.198,12.0671c1.656,0.3897 3.409,0.7045 5.102,1.0193c6.361,1.1617 12.37,2.2635 12.37,6.5506c0,3.3053 -3.836,5.6063 -9.32,5.6063c-5.582,0 -8.662,-2.2335 -9.418,-6.8355l-0.083,-0.5096l-10.257,2.1511l0.082,0.4722c1.491,8.282 8.841,13.2287 19.668,13.2287c5.5,0 10.213,-1.3716 13.989,-4.0698c3.776,-2.6682 5.687,-6.1085 5.687,-10.2232c0,-10.7929 -9.553,-12.5917 -17.241,-14.0383z" fill="#bfbfbf" id="svg_8"/>
  <path d="m109.354,47.2363l-13.539,34.3048l-13.629,-34.3048l-11.1489,0l19.1135,46.8216l-13.599,33.0231l9.7478,1.941l33.5896,-81.7857l-10.535,0z" fill="#bfbfbf" id="svg_9"/>
  <path d="m76.561725,127.090625l-0.640825,1.491375c-0.472,1.139 -1.5509,1.911 -2.7647,1.963c-0.8017,0.03 -1.6109,0.053 -2.4276,0.053c-27.9547,-0.015 -52.019743,-17.155357 -58.148643,-44.347157l-9.344191,2.6261c3.43909,15.2527 11.231234,26.026057 23.466634,35.920057c12.3777,10.005 27.9697,15.529 43.9213,15.559c0.0225,0 0.1423,0 0.1423,0c0.9366,0 1.8657,-0.022 2.7947,-0.06c5.0051,-0.21 9.4782,-3.35 11.3888,-8.004l1.367525,-3.30625l-9.7553,-1.895125z" fill="url(#paint1_linear_5876_56500)" id="svg_10" opacity="0.3"/>
 </g>
</svg>